<?xml version="1.0" encoding="UTF-8" standalone="no"?>
<svg
   width="80.0px"
   height="80.0px"
   viewBox="0 0 80.0 80.0"
   version="1.1"
   id="SVGRoot"
   sodipodi:docname="aerial_delay.svg"
   inkscape:version="1.2 (56b05e47e7, 2022-06-09, custom)"
   xml:space="preserve"
   xmlns:inkscape="http://www.inkscape.org/namespaces/inkscape"
   xmlns:sodipodi="http://sodipodi.sourceforge.net/DTD/sodipodi-0.dtd"
   xmlns:xlink="http://www.w3.org/1999/xlink"
   xmlns="http://www.w3.org/2000/svg"
   xmlns:svg="http://www.w3.org/2000/svg"
   xmlns:rdf="http://www.w3.org/1999/02/22-rdf-syntax-ns#"
   xmlns:cc="http://creativecommons.org/ns#"
   xmlns:dc="http://purl.org/dc/elements/1.1/"><defs
     id="defs833"><filter
       style="color-interpolation-filters:sRGB;"
       inkscape:label="Duochrome"
       id="filter1754"
       x="0"
       y="0"
       width="1"
       height="1"><feColorMatrix
         type="luminanceToAlpha"
         result="colormatrix1"
         id="feColorMatrix1734" /><feFlood
         flood-opacity="1"
         flood-color="rgb(255,255,255)"
         result="flood1"
         id="feFlood1736" /><feComposite
         in2="colormatrix1"
         operator="out"
         result="composite1"
         id="feComposite1738" /><feFlood
         flood-opacity="1"
         flood-color="rgb(255,255,255)"
         result="flood2"
         id="feFlood1740" /><feComposite
         in2="colormatrix1"
         result="composite2"
         operator="in"
         id="feComposite1742" /><feComposite
         in="composite2"
         in2="composite1"
         k2="1"
         k3="1"
         operator="arithmetic"
         result="composite3"
         id="feComposite1744"
         k1="0"
         k4="0" /><feColorMatrix
         in="composite3"
         type="matrix"
         values="2 -1 0 0 0 0 2 -1 0 0 -1 0 2 0 0 0 0 0 1 0 "
         result="colormatrix2"
         id="feColorMatrix1746" /><feComposite
         in="colormatrix2"
         in2="composite3"
         operator="arithmetic"
         k2="0"
         result="composite4"
         id="feComposite1748"
         k1="0"
         k3="0"
         k4="0" /><feBlend
         in="composite4"
         in2="composite3"
         mode="normal"
         result="blend"
         id="feBlend1750" /><feComposite
         in2="SourceGraphic"
         operator="in"
         id="feComposite1752" /></filter></defs><sodipodi:namedview
     id="base"
     pagecolor="#3b3b3b"
     bordercolor="#666666"
     borderopacity="1.0"
     inkscape:pageopacity="0"
     inkscape:pageshadow="2"
     inkscape:zoom="4"
     inkscape:cx="-75.375001"
     inkscape:cy="27.375"
     inkscape:document-units="px"
     inkscape:current-layer="layer2"
     inkscape:document-rotation="0"
     showgrid="true"
     inkscape:window-width="1848"
     inkscape:window-height="1016"
     inkscape:window-x="72"
     inkscape:window-y="27"
     inkscape:window-maximized="1"
     inkscape:showpageshadow="0"
     inkscape:pagecheckerboard="0"
     inkscape:deskcolor="#3b3b3b"><inkscape:grid
       type="xygrid"
       id="grid1403" /></sodipodi:namedview><metadata
     id="metadata836"><rdf:RDF><cc:Work
         rdf:about=""><dc:format>image/svg+xml</dc:format><dc:type
           rdf:resource="http://purl.org/dc/dcmitype/StillImage" /></cc:Work></rdf:RDF></metadata><g
     inkscape:label="Layer 1"
     inkscape:groupmode="layer"
     id="layer1"><image
       width="74.923218"
       height="74.923218"
       preserveAspectRatio="none"
       xlink:href="file:///home/xhudaman/snap/inkscape/10417/Documents/UltimateTrainingModpack/images.png"
       id="image1420"
       x="5.0767822"
       y="5"
       style="display:none;opacity:1;fill:#fffff8;fill-opacity:1;stroke:none;stroke-opacity:1;filter:url(#filter1754)"
       transform="matrix(0.73306005,0,0,0.73306005,1.355196,11.411482)" /><circle
       style="opacity:1;fill:none;fill-opacity:1;stroke:#000000;stroke-width:3;stroke-linecap:round;stroke-linejoin:round;stroke-miterlimit:4;stroke-dasharray:none;stroke-opacity:1"
       id="path1760"
       cx="65"
       cy="15"
       r="10" /><path
       style="fill:none;stroke:#000000;stroke-width:2;stroke-linecap:round;stroke-linejoin:round;stroke-opacity:1;stroke-miterlimit:4;stroke-dasharray:none"
       d="m 65,5 v 10 l 5,-5"
       id="path1762" /></g><g
     inkscape:groupmode="layer"
     id="layer2"
     inkscape:label="Layer 2"><image
       width="54.923"
       height="54.923"
       preserveAspectRatio="none"
       xlink:href="../428fd192/aerial_delay.png"
       id="image304"
       x="5.0770001"
       y="15.077"
       style="display:none" /><path
       style="fill:#000000;stroke-width:0.219692"
       d="m 21.444054,69.149034 c -2.449465,-0.147732 -3.405226,-0.43671 -3.405226,-1.029582 0,-0.763469 1.007474,-0.849769 9.33691,-0.799798 7.679255,0.04607 14.668683,0.397856 18.667616,0.939555 4.556904,0.617282 1.957115,0.836695 -11.198088,0.945078 -6.04153,0.04977 -12.072075,0.02491 -13.401212,-0.05525 z m -4.135516,-4.301152 c -1.611793,-0.574793 -3.079502,-1.741437 -3.772453,-2.998622 -1.110803,-2.015272 -0.848933,-4.577984 0.627043,-6.136367 0.430791,-0.454841 0.479183,-0.641692 0.300632,-1.160782 -0.335726,-0.976034 -0.07317,-2.673548 0.561962,-3.633299 0.716575,-1.082818 1.979782,-1.703053 4.158335,-2.041745 1.505445,-0.234047 1.663897,-0.303654 1.47875,-0.649605 -0.114052,-0.213108 -0.207367,-0.653226 -0.207367,-0.978041 0,-0.446398 -0.06704,-0.535461 -0.274615,-0.364822 -0.151038,0.124161 -1.042685,0.287726 -1.981437,0.363476 -0.938752,0.07575 -1.958517,0.233418 -2.266144,0.350378 -0.631208,0.239985 -1.993098,0.257349 -2.544556,0.03244 -0.20138,-0.08213 -1.047493,-0.684839 -1.880252,-1.339357 C 10.329849,45.365215 9.9323528,44.902929 9.7146418,44.205356 9.560813,43.71247 9.3333788,43.186811 9.2092324,43.037225 8.9424044,42.715717 8.7840212,39.462812 9.0351948,39.462812 c 0.094904,0 0.3762408,-0.345226 0.6251927,-0.767167 0.2974704,-0.504175 0.8600635,-0.966987 1.6411205,-1.350053 l 1.188481,-0.582886 -0.487538,-0.718428 c -0.342227,-0.5043 -0.52728,-1.192461 -0.620876,-2.308872 -0.07334,-0.874745 -0.236667,-1.693775 -0.36296,-1.820068 -0.126293,-0.126292 -0.229623,-0.395121 -0.229623,-0.597398 0,-0.325276 -1.0369248,-2.400344 -1.1994673,-2.400344 -0.034893,0 -0.4891747,0.150207 -1.0095143,0.333794 C 7.4960357,29.633838 6.9746157,29.401655 7.4467949,28.74678 8.6020916,27.144475 8.5823053,27.291499 7.8433035,25.800512 7.2574021,24.618416 7.170755,24.216518 7.19163,22.777836 c 0.032644,-2.249778 0.6701226,-3.873905 2.0699796,-5.273762 1.6535954,-1.653596 2.9728484,-2.087735 6.3606064,-2.093148 3.253467,-0.0052 4.649546,0.382985 7.412321,2.061018 1.010932,0.614013 2.108948,1.101736 2.641014,1.173101 2.010926,0.269722 3.166954,1.864937 3.166954,4.370112 0,1.432034 0.0259,1.508599 0.510316,1.508599 0.303373,0 0.747893,0.282345 1.096175,0.696254 0.52473,0.623605 0.578344,0.843611 0.513838,2.108506 l -0.07202,1.412252 0.713999,-0.826957 c 0.410147,-0.475034 0.713999,-1.06987 0.713999,-1.39776 0,-0.313942 0.209435,-0.961562 0.465409,-1.439156 0.255974,-0.477593 0.604577,-1.336984 0.774673,-1.909758 0.291907,-0.982955 1.495376,-2.810025 2.257927,-3.427916 0.190631,-0.154466 0.840908,-0.573699 1.445061,-0.931629 1.844609,-1.092836 4.060605,-0.796137 6.716879,0.89932 3.26763,2.085679 4.363931,4.473503 3.321029,7.233456 -0.312956,0.828209 -0.571046,1.09555 -1.590676,1.64769 -0.669408,0.362492 -1.70162,0.980376 -2.2938,1.373075 -0.592182,0.392699 -1.202152,0.713999 -1.35549,0.713999 -0.153339,0 -0.387447,0.203013 -0.52024,0.45114 -0.372595,0.696201 -1.54809,1.304667 -2.522242,1.305575 -0.633089,5.93e-4 -0.955673,0.12064 -1.146882,0.426812 -0.14632,0.234295 -0.59026,0.582754 -0.986536,0.774354 -0.396276,0.191599 -1.294876,0.86494 -1.996888,1.496313 l -1.276387,1.147952 0.698175,0.94312 c 0.383995,0.518717 1.304384,1.348182 2.045308,1.843256 0.740923,0.495073 1.607691,1.141086 1.926148,1.435586 0.397557,0.367648 0.776229,0.512906 1.208306,0.46351 l 0.629292,-0.07194 -0.07439,-1.587312 c -0.09161,-1.954593 0.343434,-3.388719 1.403713,-4.627418 0.979528,-1.144358 1.887568,-1.698643 3.516522,-2.146557 2.368779,-0.651344 2.958918,-0.713418 4.251032,-0.447145 2.607623,0.537367 4.677792,2.318393 6.257129,5.38319 1.513555,2.937143 1.759777,4.039494 1.5934,7.133762 -0.117347,2.182367 -0.08617,2.654679 0.18866,2.858164 0.476736,0.352979 0.813992,3.348631 0.540557,4.801448 -0.468696,2.490266 -1.808979,4.332256 -3.461555,4.757314 -1.552225,0.399244 -3.988295,0.190547 -5.317542,-0.455554 -0.664568,-0.323024 -1.545548,-0.712351 -1.957732,-0.865173 -0.412187,-0.15282 -1.203155,-0.589966 -1.75771,-0.971432 -0.554555,-0.381469 -1.354219,-0.801474 -1.777031,-0.933346 -1.763207,-0.54994 -5.122546,-1.146419 -6.456553,-1.146419 H 35.6353 l -0.657162,0.955155 c -0.421633,0.61282 -1.081254,1.177193 -1.840431,1.574673 -0.986052,0.516263 -1.167467,0.70218 -1.088461,1.115471 0.297219,1.554795 -1.27747,3.546765 -3.68489,4.661363 -0.906229,0.41957 -2.092566,1.154616 -2.636304,1.633432 -2.413075,2.124964 -6.059225,3.105177 -8.41951,2.263456 z"
       id="path366" /></g></svg>
