<?xml version="1.0" encoding="UTF-8" standalone="no"?>
<svg
   width="80.0px"
   height="80.0px"
   viewBox="0 0 80.0 80.0"
   version="1.1"
   id="SVGRoot"
   sodipodi:docname="buff_state.svg"
   inkscape:version="1.1.1 (3bf5ae0d25, 2021-09-20)"
   xmlns:inkscape="http://www.inkscape.org/namespaces/inkscape"
   xmlns:sodipodi="http://sodipodi.sourceforge.net/DTD/sodipodi-0.dtd"
   xmlns="http://www.w3.org/2000/svg"
   xmlns:svg="http://www.w3.org/2000/svg"
   xmlns:rdf="http://www.w3.org/1999/02/22-rdf-syntax-ns#"
   xmlns:cc="http://creativecommons.org/ns#"
   xmlns:dc="http://purl.org/dc/elements/1.1/">
  <defs
     id="defs5503" />
  <sodipodi:namedview
     id="base"
     pagecolor="#000000"
     bordercolor="#666666"
     borderopacity="1.0"
     inkscape:pageopacity="0"
     inkscape:pageshadow="2"
     inkscape:zoom="8"
     inkscape:cx="52.625"
     inkscape:cy="33.6875"
     inkscape:document-units="px"
     inkscape:current-layer="layer1"
     inkscape:document-rotation="0"
     showgrid="true"
     inkscape:window-width="1431"
     inkscape:window-height="1041"
     inkscape:window-x="256"
     inkscape:window-y="0"
     inkscape:window-maximized="0"
     inkscape:pagecheckerboard="1">
    <inkscape:grid
       type="xygrid"
       id="grid6073"
       spacingx="0.1"
       spacingy="0.1" />
  </sodipodi:namedview>
  <metadata
     id="metadata5506">
    <rdf:RDF>
      <cc:Work
         rdf:about="">
        <dc:format>image/svg+xml</dc:format>
        <dc:type
           rdf:resource="http://purl.org/dc/dcmitype/StillImage" />
      </cc:Work>
    </rdf:RDF>
  </metadata>
  <g
     inkscape:label="Layer 1"
     inkscape:groupmode="layer"
     id="layer1">
    <g
       id="g243"
       style="fill:#000000;fill-opacity:1"
       transform="matrix(0.54490954,0,0,-0.44245854,-24.388508,217.32339)">
      <g
         id="g245"
         style="fill:#000000;fill-opacity:1">
        <g
           id="g251"
           style="fill:#000000;fill-opacity:1">
          <g
             id="g253"
             style="fill:#000000;fill-opacity:1">
            <path
               d="m 58.348,376.03 c 3.332,-50.936 45.698,-55.695 45.698,-55.695 v 0 c -36.178,20.944 -24.437,58.551 -1.666,79.495 v 0 c 13.625,12.533 9.71,21.5 9.313,22.314 v 0 c 7.57,-14.95 1.868,-19.957 -2.411,-37.546 v 0 c -4.284,-17.614 6.188,-36.178 17.613,-33.44 v 0 c 11.424,2.737 5.95,17.969 5.95,17.969 v 0 c 26.419,-26.896 0.952,-44.746 0.952,-44.746 v 0 c 0,0 39.034,10.948 42.604,47.365 v 0 c 3.571,36.415 -25.705,51.411 -25.705,51.411 v 0 c 9.758,-8.093 9.283,-23.327 -1.904,-24.279 v 0 c -11.187,-0.951 -18.089,3.333 -10.71,35.464 v 0 c 7.378,32.132 -34.036,50.457 -34.036,50.457 v 0 C 124.039,438.387 55.015,426.963 58.348,376.03 m 53.314,46.174 c 0,0 0,0 0,0 v 0 c 0,0 0,0 0,0"
               style="fill:#000000;stroke:none;fill-opacity:1"
               id="path267" />
          </g>
        </g>
      </g>
    </g>
  </g>
</svg>
