<?xml version="1.0" encoding="UTF-8" standalone="no"?>
<svg
   width="80.0px"
   height="80.0px"
   viewBox="0 0 80.0 80.0"
   version="1.1"
   id="SVGRoot"
   xmlns="http://www.w3.org/2000/svg"
   xmlns:svg="http://www.w3.org/2000/svg"
   xmlns:rdf="http://www.w3.org/1999/02/22-rdf-syntax-ns#"
   xmlns:cc="http://creativecommons.org/ns#"
   xmlns:dc="http://purl.org/dc/elements/1.1/">
  <defs
     id="defs833" />
  <metadata
     id="metadata836">
    <rdf:RDF>
      <cc:Work
         rdf:about="">
        <dc:format>image/svg+xml</dc:format>
        <dc:type
           rdf:resource="http://purl.org/dc/dcmitype/StillImage" />
      </cc:Work>
    </rdf:RDF>
  </metadata>
  <g
     id="layer1"
     style="display:inline">
    <path
       style="fill:none;stroke:#000000;stroke-width:2.25673;stroke-linecap:round;stroke-linejoin:miter;stroke-miterlimit:4;stroke-dasharray:none;stroke-opacity:1"
       d="m 48.716358,59.026913 -2.256727,4.513456"
       id="path1214-9-8" />
    <path
       style="fill:none;stroke:#000000;stroke-width:2.25673;stroke-linecap:butt;stroke-linejoin:miter;stroke-miterlimit:4;stroke-dasharray:none;stroke-opacity:1"
       d="m 41.946175,74.82401 c -3.385092,0 -13.540369,-7.898548 -22.567282,-15.797097 -9.026911,-7.898548 -6.770183,-27.080737 4.513457,-30.465829 11.28364,-3.385092 23.695645,-4.513457 34.979285,0 C 70.155276,33.07454 70.155276,50 63.385091,57.898549 56.614907,65.797097 45.331267,74.82401 41.946175,74.82401 Z"
       id="path859" />
    <path
       style="fill:none;stroke:#000000;stroke-width:3.3851;stroke-linecap:round;stroke-linejoin:miter;stroke-miterlimit:4;stroke-dasharray:none;stroke-opacity:1"
       d="m 22.763986,43.229817 9.026912,-2.256728"
       id="path1160" />
    <path
       style="fill:none;stroke:#000000;stroke-width:3.3851;stroke-linecap:round;stroke-linejoin:miter;stroke-miterlimit:4;stroke-dasharray:none;stroke-opacity:1"
       d="M 20.507258,50 32.919262,46.614909"
       id="path1437" />
    <path
       style="fill:none;stroke:#000000;stroke-width:3.3851;stroke-linecap:round;stroke-linejoin:miter;stroke-miterlimit:4;stroke-dasharray:none;stroke-opacity:1"
       d="M 45.331267,46.614909 60,50"
       id="path1781" />
    <path
       style="fill:none;stroke:#000000;stroke-width:3.3851;stroke-linecap:round;stroke-linejoin:miter;stroke-miterlimit:4;stroke-dasharray:none;stroke-opacity:1"
       d="m 46.459631,39.844724 11.28364,3.385093"
       id="path2093" />
    <path
       style="fill:none;stroke:#000000;stroke-width:3.3851;stroke-linecap:round;stroke-linejoin:miter;stroke-miterlimit:4;stroke-dasharray:none;stroke-opacity:1"
       d="m 30.662535,62.412005 c 10.62776,-3.887042 15.522242,-1.997012 20.310552,0"
       id="path864" />
    <path
       style="fill:none;stroke:#000000;stroke-width:2.25673;stroke-linecap:round;stroke-linejoin:miter;stroke-miterlimit:4;stroke-dasharray:none;stroke-opacity:1"
       d="m 31.790898,59.026913 3.385092,4.513456"
       id="path1214" />
    <path
       style="fill:none;stroke:#000000;stroke-width:2.25673;stroke-linecap:round;stroke-linejoin:miter;stroke-miterlimit:4;stroke-dasharray:none;stroke-opacity:1"
       d="m 40.81781,57.898549 v 5.64182 M 7.182188,53.037544"
       id="path1214-9" />
    <path
       style="fill:none;stroke:#000000;stroke-width:2.25673;stroke-linecap:round;stroke-linejoin:round;stroke-miterlimit:4;stroke-dasharray:none;stroke-opacity:1"
       d="m 48.716358,25.175992 c 7.982722,-9.575141 18.053825,-13.540368 30.46583,-12.412005 -5.64182,-2.256728 -20.310553,-5.64182 -25.952373,0 -5.64182,5.64182 -4.553684,9.280346 -4.513457,12.412005 z"
       id="path904" />
    <path
       style="fill:none;stroke:#000000;stroke-width:2.25673;stroke-linecap:round;stroke-linejoin:round;stroke-miterlimit:4;stroke-dasharray:none;stroke-opacity:1"
       d="M 31.790898,26.304356 C 24.347403,20.427138 17.331523,14.08816 3.5817973,15.020715 c 0,0 16.9254607,-3.385091 21.4389157,0 4.513457,3.385092 4.513457,4.513457 6.770185,11.283641 z"
       id="path869" />
    <path
       style="fill:none;stroke:#000000;stroke-width:2.25673;stroke-linecap:butt;stroke-linejoin:miter;stroke-miterlimit:4;stroke-dasharray:none;stroke-opacity:1"
       d="m 37.432718,25.175992 h 4.513457 c 0,-6.770185 4.513456,-12.412005 6.770183,-14.668733 2.256729,-2.256728 0,-5.6418201 -2.256727,-6.7701841 -2.256728,-1.128364 -11.152788,-2.6019259 -15.797096,0 -4.64431,2.6019259 -4.187221,5.2313931 -1.128365,7.8985491 3.058857,2.667155 7.898548,11.28364 7.898548,13.540368"
       id="path1991" />
  </g>
</svg>
