<?xml version="1.0" encoding="UTF-8" standalone="no"?>
<!-- Created with Inkscape (http://www.inkscape.org/) -->

<svg
   width="80"
   height="80"
   viewBox="0 0 21.166666 21.166667"
   version="1.1"
   id="svg5"
   xmlns="http://www.w3.org/2000/svg"
   xmlns:svg="http://www.w3.org/2000/svg">
  <defs
     id="defs2" />
  <g
     id="layer2"
     style="display:inline">
    <path
       style="fill:#000000;stroke:none;stroke-width:0.0497127;fill-opacity:1"
       d="M 13.064037,0.15777454 C 8.1424266,0.80397653 3.2845429,3.5550995 1.5652428,8.4884178 -0.15917764,13.436426 2.3169541,19.190626 7.5459235,20.622254 8.7329642,20.947276 10.006356,21.008224 11.224666,20.852722 17.566967,20.0432 20.634193,13.067458 19.846047,7.3450248 19.413696,4.206053 17.925744,0.44725481 14.306856,0.18197818 13.892599,0.15161215 13.479984,0.10316141 13.064037,0.15777454 m 5.915816,6.88897386 c -0.824287,0.084412 -1.367697,1.0032528 -1.66145,1.6902331 -0.575375,1.3453265 -0.676441,2.8591785 -0.320746,4.2752955 0.152618,0.607689 0.386119,1.283832 0.888516,1.690233 -0.170267,0.95528 -1.129524,1.975436 -1.789659,2.634776 -2.336747,2.333913 -5.743263,3.326677 -8.8985796,2.202672 C 2.6731458,17.928122 1.0093348,12.893563 2.45869,8.5878433 2.9049613,7.262104 3.7953064,5.583255 4.9608613,4.7599623 c 0,1.6125322 1.2650897,2.6094715 2.7839132,2.8540084 C 9.8316157,7.9499792 12.349118,7.2792051 13.68475,5.5553662 14.496013,4.5083512 14.838633,2.7528502 13.80774,1.7296327 13.428282,1.353019 12.920069,1.1740531 12.417772,1.0315068 12.922058,0.81791598 13.723775,0.89852022 14.257143,0.96779492 17.150126,1.3435586 18.762956,4.3213617 18.979853,7.0467484 M 8.6893164,10.448492 c -0.6508391,0.09321 -1.2731928,0.277596 -1.8393712,0.621359 -2.0621489,1.251966 -2.6350683,4.142314 -1.0290437,6.018871 1.0799496,1.261858 2.7350854,1.804871 4.3597975,1.569531 0.528645,-0.07661 1.030843,-0.232059 1.491382,-0.505877 3.699025,-2.199391 1.102429,-8.288854 -2.9827646,-7.703884 z"
       id="path5397" />
  </g>
  <g
     id="layer3"
     style="display:inline" />
</svg>
