<?xml version="1.0" encoding="UTF-8" standalone="no"?>
<svg
   xmlns:dc="http://purl.org/dc/elements/1.1/"
   xmlns:cc="http://creativecommons.org/ns#"
   xmlns:rdf="http://www.w3.org/1999/02/22-rdf-syntax-ns#"
   xmlns:svg="http://www.w3.org/2000/svg"
   xmlns="http://www.w3.org/2000/svg"
   xmlns:sodipodi="http://sodipodi.sourceforge.net/DTD/sodipodi-0.dtd"
   xmlns:inkscape="http://www.inkscape.org/namespaces/inkscape"
   width="80.0px"
   height="80.0px"
   viewBox="0 0 80.0 80.0"
   version="1.1"
   id="SVGRoot"
   sodipodi:docname="defensive_state.svg"
   inkscape:version="1.0.1 (3bc2e813f5, 2020-09-07)">
  <defs
     id="defs5503" />
  <sodipodi:namedview
     id="base"
     pagecolor="#000000"
     bordercolor="#666666"
     borderopacity="1.0"
     inkscape:pageopacity="0"
     inkscape:pageshadow="2"
     inkscape:zoom="5.6"
     inkscape:cx="56.066346"
     inkscape:cy="47.542419"
     inkscape:document-units="px"
     inkscape:current-layer="layer1"
     inkscape:document-rotation="0"
     showgrid="true"
     inkscape:window-width="1431"
     inkscape:window-height="1150"
     inkscape:window-x="256"
     inkscape:window-y="0"
     inkscape:window-maximized="0">
    <inkscape:grid
       type="xygrid"
       id="grid6073" />
  </sodipodi:namedview>
  <metadata
     id="metadata5506">
    <rdf:RDF>
      <cc:Work
         rdf:about="">
        <dc:format>image/svg+xml</dc:format>
        <dc:type
           rdf:resource="http://purl.org/dc/dcmitype/StillImage" />
        <dc:title></dc:title>
      </cc:Work>
    </rdf:RDF>
  </metadata>
  <g
     inkscape:label="Layer 1"
     inkscape:groupmode="layer"
     id="layer1">
    <path
       style="fill:#000000;fill-opacity:1;stroke-width:0.0763833"
       d="M 38.816057,74.605714 C 29.334444,69.285944 21.721463,62.501161 16.396726,54.625324 12.680655,49.128873 10.507915,43.664275 9.6966552,37.774178 L 9.523071,36.513858 V 23.912615 11.311371 l 3.47544,-1.042804 C 14.909999,9.6950232 19.344052,8.3583968 22.851952,7.2982802 26.359855,6.2381628 31.257932,4.7597146 33.73657,4.0128262 36.215206,3.2659437 38.650419,2.5310366 39.148153,2.3796957 L 40.053125,2.10453 41.401461,2.5189583 c 0.741584,0.2279389 2.396695,0.727831 3.678025,1.1108785 2.124241,0.6350325 5.125149,1.5406034 15.467614,4.6676201 1.974506,0.5969825 5.033656,1.5193815 6.798111,2.0497691 l 3.208097,0.964332 v 12.524769 c 0,13.750626 0.01825,13.133525 -0.466202,15.771048 -1.469368,7.999907 -6.208433,16.280925 -13.435554,23.47723 -4.554305,4.534886 -9.53794,8.25966 -15.480083,11.569834 -0.616013,0.343161 -1.1316,0.622041 -1.145748,0.619733 -0.01415,-0.0023 -0.558497,-0.303113 -1.209664,-0.668458 z M 40.017434,6.9455021 c -0.01151,-0.011503 -1.154442,0.3221589 -2.539835,0.7414927 -1.385394,0.4193395 -4.804667,1.4508031 -7.598385,2.2921444 -2.793719,0.8413418 -6.248152,1.8853668 -7.67652,2.3200618 -1.42837,0.434688 -3.765692,1.137541 -5.194065,1.56189 -1.428365,0.424355 -2.676426,0.80554 -2.77347,0.847086 l -0.17644,0.07553 0.0285,10.635925 c 0.03141,11.709218 0.01623,11.306873 0.521534,13.844017 0.545678,2.739906 1.330584,4.981114 2.782065,7.943865 1.742197,3.556168 4.084322,6.961065 7.14568,10.388121 1.12907,1.263951 3.935989,4.012837 5.240776,5.132427 2.870291,2.462894 5.713524,4.524858 9.000587,6.527393 L 40,70 40.019187,38.483223 c 0.01055,-17.33423 0.0098,-31.5262046 -0.0018,-31.5377209 z"
       id="path6100" />
  </g>
</svg>
